<svg width="64" height="64" viewBox="0 0 64 64" fill="none" xmlns="http://www.w3.org/2000/svg">
<circle cx="32" cy="32" r="32" fill="white"/>
<circle cx="32" cy="32" r="31.5" stroke="#06172B" stroke-opacity="0.1"/>
<circle cx="32" cy="32" r="28" fill="#2E7D32" fill-opacity="0.1"/>
<g clip-path="url(#clip0_317_5961)">
<path fill-rule="evenodd" clip-rule="evenodd" d="M18.6667 31.9998H21.6296V42.3702C21.6296 43.156 21.9418 43.9097 22.4975 44.4653C23.0531 45.021 23.8068 45.3332 24.5926 45.3332H39.4074C40.1932 45.3332 40.9469 45.021 41.5025 44.4653C42.0582 43.9097 42.3704 43.156 42.3704 42.3702V31.9998H42.3705H45.3334L32.0001 18.6665L18.6667 31.9998Z" fill="#2E7D32"/>
<path d="M21.6296 31.9998H22.6296C22.6296 31.4476 22.1819 30.9998 21.6296 30.9998V31.9998ZM18.6667 31.9998L17.9596 31.2927C17.6736 31.5787 17.5881 32.0088 17.7429 32.3825C17.8976 32.7562 18.2623 32.9998 18.6667 32.9998V31.9998ZM22.4975 44.4653L23.2046 43.7582L22.4975 44.4653ZM41.5025 44.4653L40.7954 43.7582L40.7954 43.7582L41.5025 44.4653ZM42.3704 31.9998V30.9998C41.8181 30.9998 41.3704 31.4476 41.3704 31.9998H42.3704ZM45.3334 31.9998V32.9998C45.7379 32.9998 46.1025 32.7562 46.2573 32.3825C46.4121 32.0088 46.3265 31.5787 46.0405 31.2927L45.3334 31.9998ZM32.0001 18.6665L32.7072 17.9594C32.3167 17.5689 31.6835 17.5689 31.293 17.9594L32.0001 18.6665ZM21.6296 30.9998H18.6667V32.9998H21.6296V30.9998ZM20.6296 31.9998V42.3702H22.6296V31.9998H20.6296ZM20.6296 42.3702C20.6296 43.4213 21.0472 44.4292 21.7904 45.1724L23.2046 43.7582C22.8364 43.3901 22.6296 42.8908 22.6296 42.3702H20.6296ZM21.7904 45.1724C22.5336 45.9156 23.5416 46.3332 24.5926 46.3332V44.3332C24.072 44.3332 23.5727 44.1264 23.2046 43.7582L21.7904 45.1724ZM24.5926 46.3332H39.4074V44.3332H24.5926V46.3332ZM39.4074 46.3332C40.4585 46.3332 41.4665 45.9156 42.2097 45.1724L40.7954 43.7582C40.4273 44.1264 39.928 44.3332 39.4074 44.3332V46.3332ZM42.2097 45.1724C42.9529 44.4292 43.3704 43.4213 43.3704 42.3702H41.3704C41.3704 42.8908 41.1636 43.3901 40.7954 43.7582L42.2097 45.1724ZM43.3704 42.3702V31.9998H41.3704V42.3702H43.3704ZM42.3705 30.9998H42.3704V32.9998H42.3705V30.9998ZM45.3334 30.9998H42.3705V32.9998H45.3334V30.9998ZM31.293 19.3736L44.6263 32.7069L46.0405 31.2927L32.7072 17.9594L31.293 19.3736ZM19.3739 32.7069L32.7072 19.3736L31.293 17.9594L17.9596 31.2927L19.3739 32.7069Z" fill="#2E7D32"/>
<path d="M28 34.0002L30.6667 36.6668L36 31.3335" stroke="white" stroke-width="2" stroke-linecap="round" stroke-linejoin="round"/>
</g>
<path d="M40 40H64V52C64 58.6274 58.6274 64 52 64C45.3726 64 40 58.6274 40 52V40Z" fill="#061630"/>
<path d="M56.36 46.7801L52.6934 45.4068C52.3134 45.2668 51.6934 45.2668 51.3134 45.4068L47.6467 46.7801C46.94 47.0468 46.3667 47.8734 46.3667 48.6268V54.0268C46.3667 54.5668 46.72 55.2801 47.1534 55.6001L50.82 58.3401C51.4667 58.8268 52.5267 58.8268 53.1734 58.3401L56.84 55.6001C57.2734 55.2734 57.6267 54.5668 57.6267 54.0268V48.6268C57.6334 47.8734 57.06 47.0468 56.36 46.7801ZM52.5 52.5801V54.3334C52.5 54.6068 52.2734 54.8334 52 54.8334C51.7267 54.8334 51.5 54.6068 51.5 54.3334V52.5801C50.8267 52.3668 50.3334 51.7401 50.3334 51.0001C50.3334 50.0801 51.08 49.3334 52 49.3334C52.92 49.3334 53.6667 50.0801 53.6667 51.0001C53.6667 51.7468 53.1734 52.3668 52.5 52.5801Z" fill="white"/>
<defs>
<clipPath id="clip0_317_5961">
<rect width="32" height="32" fill="white" transform="translate(16 16)"/>
</clipPath>
</defs>
</svg>
