<svg width="64" height="64" viewBox="0 0 64 64" fill="none" xmlns="http://www.w3.org/2000/svg">
<circle cx="32" cy="32" r="32" fill="white"/>
<circle cx="32" cy="32" r="31.5" stroke="#06172B" stroke-opacity="0.1"/>
<circle cx="32" cy="32" r="28" fill="#2E7D32" fill-opacity="0.1"/>
<path d="M40 51C40 49.741 40.5928 48.5554 41.6 47.8L49.6 41.8C51.0222 40.7333 52.9778 40.7333 54.4 41.8L62.4 47.8C63.4072 48.5554 64 49.741 64 51V64H40V51Z" fill="#061630"/>
<path d="M50.6667 55.3335C50.3934 55.3335 50.1667 55.5602 50.1667 55.8335V56.8335C50.1667 57.1068 50.3934 57.3335 50.6667 57.3335C50.9401 57.3335 51.1667 57.1068 51.1667 56.8335V55.8335C51.1667 55.5602 50.9401 55.3335 50.6667 55.3335Z" fill="white"/>
<path d="M58.6666 59.1668H57.9999V51.6535C57.9999 51.2401 57.8133 50.8535 57.4866 50.6001L52.8199 46.9735C52.3399 46.5935 51.6599 46.5935 51.1799 46.9735L46.5133 50.6001C46.1866 50.8535 45.9999 51.2401 45.9999 51.6468L45.9666 59.1668H45.3333C45.0599 59.1668 44.8333 59.3868 44.8333 59.6668C44.8333 59.9401 45.0599 60.1668 45.3333 60.1668H58.6666C58.9399 60.1668 59.1666 59.9401 59.1666 59.6668C59.1666 59.3868 58.9399 59.1668 58.6666 59.1668ZM50.9999 49.5001H52.9999C53.2733 49.5001 53.4999 49.7268 53.4999 50.0001C53.4999 50.2735 53.2733 50.5001 52.9999 50.5001H50.9999C50.7266 50.5001 50.4999 50.2735 50.4999 50.0001C50.4999 49.7268 50.7266 49.5001 50.9999 49.5001ZM55.3333 59.1668H48.6666V53.3335C48.6666 52.7801 49.1133 52.3335 49.6666 52.3335H54.3333C54.8866 52.3335 55.3333 52.7801 55.3333 53.3335V59.1668Z" fill="white"/>
<g clip-path="url(#clip0_317_5999)">
<g filter="url(#filter0_d_317_5999)">
<path d="M21.3333 26.6668V24.0002C21.3333 23.2929 21.6142 22.6146 22.1143 22.1145C22.6144 21.6144 23.2927 21.3335 23.9999 21.3335H26.6666" stroke="#2E7D32" stroke-width="2" stroke-linecap="round" stroke-linejoin="round" shape-rendering="crispEdges"/>
</g>
<g filter="url(#filter1_d_317_5999)">
<path d="M21.3333 37.3335V40.0002C21.3333 40.7074 21.6142 41.3857 22.1143 41.8858C22.6144 42.3859 23.2927 42.6668 23.9999 42.6668H26.6666" stroke="#2E7D32" stroke-width="2" stroke-linecap="round" stroke-linejoin="round" shape-rendering="crispEdges"/>
</g>
<path d="M37.3333 21.3335H39.9999C40.7072 21.3335 41.3854 21.6144 41.8855 22.1145C42.3856 22.6146 42.6666 23.2929 42.6666 24.0002V26.6668" stroke="#2E7D32" stroke-width="2" stroke-linecap="round" stroke-linejoin="round"/>
<path d="M37.3333 42.6668H39.9999C40.7072 42.6668 41.3854 42.3859 41.8855 41.8858C42.3856 41.3857 42.6666 40.7074 42.6666 40.0002V37.3335" stroke="#2E7D32" stroke-width="2" stroke-linecap="round" stroke-linejoin="round"/>
<path d="M32.0001 40L27.3334 33.3333C26.8842 32.5213 26.6546 31.6062 26.6672 30.6784C26.6799 29.7505 26.9345 28.842 27.4058 28.0426C27.8771 27.2433 28.5488 26.5807 29.3545 26.1204C30.1602 25.6601 31.0721 25.418 32.0001 25.418C32.928 25.418 33.8399 25.6601 34.6457 26.1204C35.4514 26.5807 36.1231 27.2433 36.5944 28.0426C37.0657 28.842 37.3202 29.7505 37.3329 30.6784C37.3456 31.6062 37.116 32.5213 36.6667 33.3333L32.0001 40Z" fill="#2E7D32" stroke="#2E7D32" stroke-width="2" stroke-linecap="round" stroke-linejoin="round"/>
<path d="M32 30.6665V30.6798" stroke="white" stroke-width="6" stroke-linecap="round" stroke-linejoin="round"/>
</g>
<defs>
<filter id="filter0_d_317_5999" x="18.3333" y="18.3335" width="15.3333" height="15.3335" filterUnits="userSpaceOnUse" color-interpolation-filters="sRGB">
<feFlood flood-opacity="0" result="BackgroundImageFix"/>
<feColorMatrix in="SourceAlpha" type="matrix" values="0 0 0 0 0 0 0 0 0 0 0 0 0 0 0 0 0 0 127 0" result="hardAlpha"/>
<feOffset dx="2" dy="2"/>
<feGaussianBlur stdDeviation="2"/>
<feComposite in2="hardAlpha" operator="out"/>
<feColorMatrix type="matrix" values="0 0 0 0 0.439216 0 0 0 0 0.396078 0 0 0 0 0.941176 0 0 0 0.1 0"/>
<feBlend mode="normal" in2="BackgroundImageFix" result="effect1_dropShadow_317_5999"/>
<feBlend mode="normal" in="SourceGraphic" in2="effect1_dropShadow_317_5999" result="shape"/>
</filter>
<filter id="filter1_d_317_5999" x="18.3333" y="34.3335" width="15.3333" height="15.3335" filterUnits="userSpaceOnUse" color-interpolation-filters="sRGB">
<feFlood flood-opacity="0" result="BackgroundImageFix"/>
<feColorMatrix in="SourceAlpha" type="matrix" values="0 0 0 0 0 0 0 0 0 0 0 0 0 0 0 0 0 0 127 0" result="hardAlpha"/>
<feOffset dx="2" dy="2"/>
<feGaussianBlur stdDeviation="2"/>
<feComposite in2="hardAlpha" operator="out"/>
<feColorMatrix type="matrix" values="0 0 0 0 0.439216 0 0 0 0 0.396078 0 0 0 0 0.941176 0 0 0 0.1 0"/>
<feBlend mode="normal" in2="BackgroundImageFix" result="effect1_dropShadow_317_5999"/>
<feBlend mode="normal" in="SourceGraphic" in2="effect1_dropShadow_317_5999" result="shape"/>
</filter>
<clipPath id="clip0_317_5999">
<rect width="32" height="32" fill="white" transform="translate(16 16)"/>
</clipPath>
</defs>
</svg>
