<svg width="64" height="64" viewBox="0 0 64 64" fill="none" xmlns="http://www.w3.org/2000/svg">
<circle cx="32" cy="32" r="32" fill="white"/>
<circle cx="32" cy="32" r="31.5" stroke="#06172B" stroke-opacity="0.1"/>
<circle cx="32" cy="32" r="28" fill="#27E3C0" fill-opacity="0.1"/>
<rect x="40" y="40" width="24" height="24" rx="12" fill="#061630"/>
<path d="M51.5 49.3867V51.2934L50.8267 51.0601C50.4867 50.9401 50.28 50.8267 50.28 50.2467C50.28 49.7734 50.6334 49.3867 51.0667 49.3867H51.5Z" fill="#27E3C0"/>
<path d="M53.72 53.7532C53.72 54.2265 53.3667 54.6132 52.9333 54.6132H52.5V52.7065L53.1733 52.9399C53.5133 53.0599 53.72 53.1732 53.72 53.7532Z" fill="#27E3C0"/>
<path d="M54.7933 45.3335H49.2066C46.7799 45.3335 45.3333 46.7802 45.3333 49.2068V54.7935C45.3333 57.2202 46.7799 58.6668 49.2066 58.6668H54.7933C57.2199 58.6668 58.6666 57.2202 58.6666 54.7935V49.2068C58.6666 46.7802 57.2199 45.3335 54.7933 45.3335ZM53.5066 52.0002C54.0266 52.1802 54.7199 52.5602 54.7199 53.7535C54.7199 54.7802 53.9199 55.6135 52.9333 55.6135H52.4999V56.0002C52.4999 56.2735 52.2733 56.5002 51.9999 56.5002C51.7266 56.5002 51.4999 56.2735 51.4999 56.0002V55.6135H51.2599C50.1666 55.6135 49.2799 54.6868 49.2799 53.5535C49.2799 53.2802 49.4999 53.0535 49.7799 53.0535C50.0533 53.0535 50.2799 53.2802 50.2799 53.5535C50.2799 54.1402 50.7199 54.6135 51.2599 54.6135H51.4999V52.3535L50.4933 52.0002C49.9733 51.8202 49.2799 51.4402 49.2799 50.2468C49.2799 49.2202 50.0799 48.3868 51.0666 48.3868H51.4999V48.0002C51.4999 47.7268 51.7266 47.5002 51.9999 47.5002C52.2733 47.5002 52.4999 47.7268 52.4999 48.0002V48.3868H52.7399C53.8333 48.3868 54.7199 49.3135 54.7199 50.4468C54.7199 50.7202 54.4999 50.9468 54.2199 50.9468C53.9466 50.9468 53.7199 50.7202 53.7199 50.4468C53.7199 49.8602 53.2799 49.3868 52.7399 49.3868H52.4999V51.6468L53.5066 52.0002Z" fill="white"/>
<path d="M32.0001 44L45.3334 34.6667H40.0134L40.0001 20H24.0001V34.6667H18.6667L32.0001 44Z" fill="#27E3C0" stroke="#27E3C0" stroke-width="2" stroke-linecap="round" stroke-linejoin="round"/>
<g filter="url(#filter0_d_317_5988)">
<path d="M28 34.6665L36 26.6665" stroke="white" stroke-width="2" stroke-linecap="round" stroke-linejoin="round"/>
</g>
<g filter="url(#filter1_d_317_5988)">
<path d="M28.6667 27.9998C29.0349 27.9998 29.3333 27.7014 29.3333 27.3332C29.3333 26.965 29.0349 26.6665 28.6667 26.6665C28.2985 26.6665 28 26.965 28 27.3332C28 27.7014 28.2985 27.9998 28.6667 27.9998Z" fill="#27E3C0"/>
<path d="M28.6667 27.9998C29.0349 27.9998 29.3333 27.7014 29.3333 27.3332C29.3333 26.965 29.0349 26.6665 28.6667 26.6665C28.2985 26.6665 28 26.965 28 27.3332C28 27.7014 28.2985 27.9998 28.6667 27.9998Z" stroke="white" stroke-width="2" stroke-linecap="round" stroke-linejoin="round"/>
</g>
<path d="M35.3334 34.6668C35.7016 34.6668 36.0001 34.3684 36.0001 34.0002C36.0001 33.632 35.7016 33.3335 35.3334 33.3335C34.9652 33.3335 34.6667 33.632 34.6667 34.0002C34.6667 34.3684 34.9652 34.6668 35.3334 34.6668Z" fill="#27E3C0" stroke="white" stroke-width="2" stroke-linecap="round" stroke-linejoin="round"/>
<defs>
<filter id="filter0_d_317_5988" x="25" y="23.6665" width="18" height="18" filterUnits="userSpaceOnUse" color-interpolation-filters="sRGB">
<feFlood flood-opacity="0" result="BackgroundImageFix"/>
<feColorMatrix in="SourceAlpha" type="matrix" values="0 0 0 0 0 0 0 0 0 0 0 0 0 0 0 0 0 0 127 0" result="hardAlpha"/>
<feOffset dx="2" dy="2"/>
<feGaussianBlur stdDeviation="2"/>
<feComposite in2="hardAlpha" operator="out"/>
<feColorMatrix type="matrix" values="0 0 0 0 0.439216 0 0 0 0 0.396078 0 0 0 0 0.941176 0 0 0 0.1 0"/>
<feBlend mode="normal" in2="BackgroundImageFix" result="effect1_dropShadow_317_5988"/>
<feBlend mode="normal" in="SourceGraphic" in2="effect1_dropShadow_317_5988" result="shape"/>
</filter>
<filter id="filter1_d_317_5988" x="25" y="23.6665" width="11.3333" height="11.3335" filterUnits="userSpaceOnUse" color-interpolation-filters="sRGB">
<feFlood flood-opacity="0" result="BackgroundImageFix"/>
<feColorMatrix in="SourceAlpha" type="matrix" values="0 0 0 0 0 0 0 0 0 0 0 0 0 0 0 0 0 0 127 0" result="hardAlpha"/>
<feOffset dx="2" dy="2"/>
<feGaussianBlur stdDeviation="2"/>
<feComposite in2="hardAlpha" operator="out"/>
<feColorMatrix type="matrix" values="0 0 0 0 0.439216 0 0 0 0 0.396078 0 0 0 0 0.941176 0 0 0 0.1 0"/>
<feBlend mode="normal" in2="BackgroundImageFix" result="effect1_dropShadow_317_5988"/>
<feBlend mode="normal" in="SourceGraphic" in2="effect1_dropShadow_317_5988" result="shape"/>
</filter>
</defs>
</svg>
