<svg xmlns="http://www.w3.org/2000/svg" viewBox="0 0 16.5 18">
  <defs>
    <style>
      .cls-1 {
        fill: #919191;
      }
    </style>
  </defs>
  <path id="ic_ev_station_24px" class="cls-1" d="M19.77,7.23l.01-.01L16.06,3.5,15,4.56l2.11,2.11A2.5,2.5,0,0,0,18,11.5a2.556,2.556,0,0,0,1-.21V18.5a1,1,0,0,1-2,0V14a2.006,2.006,0,0,0-2-2H14V5a2.006,2.006,0,0,0-2-2H6A2.006,2.006,0,0,0,4,5V21H14V13.5h1.5v5a2.5,2.5,0,0,0,5,0V9A2.5,2.5,0,0,0,19.77,7.23ZM18,10a1,1,0,1,1,1-1A1,1,0,0,1,18,10ZM8,18V13.5H6L10,6v5h2Z" transform="translate(-4 -3)"/>
</svg>
